<svg id="Layer_1" data-name="Layer 1" xmlns="http://www.w3.org/2000/svg" viewBox="0 0 145.06 51.11"><defs><style>.cls-1{fill:#353535;}</style></defs><title>managed-scrum-devops-team-icon-box</title><path class="cls-1" d="M130.88,19.78a7.33,7.33,0,1,0-7.33,7.33A7.32,7.32,0,0,0,130.88,19.78Z"/><path class="cls-1" d="M98.31,0l7.3,25.56L96.28,51.11h48.78V0Zm18.87,40.78a1.08,1.08,0,0,1-1.93,0l-1.19-2.27-2.53.36a1.09,1.09,0,0,1-1.13-1.57l5-9.81a1.16,1.16,0,0,1,.56.83v.1a1.11,1.11,0,0,0,1.32,1l.1,0a1.11,1.11,0,0,1,1.23.62l0,.09a1.11,1.11,0,0,0,1.55.51l.09,0a1.11,1.11,0,0,1,1.37.22l.06.06a1,1,0,0,0,.38.27Zm7.25-11-.06.08a1.11,1.11,0,0,1-1.64,0l-.06-.08a1.1,1.1,0,0,0-1.36-.21l-.08,0a1.11,1.11,0,0,1-1.56-.5l0-.09a1.11,1.11,0,0,0-1.23-.62l-.09,0a1.11,1.11,0,0,1-1.32-1v-.1a1.11,1.11,0,0,0-1-1h-.1a1.11,1.11,0,0,1-1-1.33v-.09a1.09,1.09,0,0,0-.62-1.23l-.09,0a1.11,1.11,0,0,1-.5-1.56l0-.08a1.11,1.11,0,0,0-.21-1.37l-.07-.06a1.1,1.1,0,0,1,0-1.63l.07-.06a1.1,1.1,0,0,0,.21-1.36l0-.09a1.1,1.1,0,0,1,.5-1.55l.09,0a1.11,1.11,0,0,0,.62-1.24v-.1a1.1,1.1,0,0,1,1-1.32h.1a1.1,1.1,0,0,0,1-1v-.1a1.11,1.11,0,0,1,1.32-1l.09,0a1.1,1.1,0,0,0,1.23-.63l0-.09a1.12,1.12,0,0,1,1.56-.5l.08,0a1.11,1.11,0,0,0,1.36-.22l.06-.07a1.11,1.11,0,0,1,1.64,0l.06.07a1.11,1.11,0,0,0,1.37.22l.09,0a1.11,1.11,0,0,1,1.55.5l0,.09a1.11,1.11,0,0,0,1.24.63l.09,0a1.11,1.11,0,0,1,1.32,1v.1a1.1,1.1,0,0,0,1,1h.1a1.1,1.1,0,0,1,1,1.32v.1a1.11,1.11,0,0,0,.62,1.24l.08,0a1.1,1.1,0,0,1,.51,1.55l-.05.09a1.1,1.1,0,0,0,.22,1.36l.07.06a1.1,1.1,0,0,1,0,1.63l-.07.06a1.11,1.11,0,0,0-.22,1.37l.05.08a1.11,1.11,0,0,1-.51,1.56l-.08,0a1.09,1.09,0,0,0-.62,1.23V25a1.11,1.11,0,0,1-1,1.33h-.1a1.11,1.11,0,0,0-1,1v.1a1.11,1.11,0,0,1-1.32,1l-.09,0a1.11,1.11,0,0,0-1.24.62l0,.09a1.11,1.11,0,0,1-1.55.5l-.09,0A1.11,1.11,0,0,0,124.43,29.75Zm11.91,9.49-2.54-.36-1.19,2.27a1.08,1.08,0,0,1-1.92,0l-5.31-10.37a1.05,1.05,0,0,1,.43.13l.09.05a1.1,1.1,0,0,0,1.55-.51l0-.08a1.1,1.1,0,0,1,1.24-.62h.09a1.09,1.09,0,0,0,1.32-1v-.1a1.1,1.1,0,0,1,1-1h.09a1.07,1.07,0,0,0,.84-.58l5.41,10.53A1.08,1.08,0,0,1,136.34,39.24Z"/><path class="cls-1" d="M92.12,0H53.42L44.09,25.56l7.3,25.56H92.12l9.08-25.56ZM60.87,33.73c-2.51,0-5,0-7.52,0l-.08,0-.12-.36V32.1c.08-.57.15-1.13.24-1.7,0-.27.12-.54.18-.8a4,4,0,0,1,2.87-2.85c1.28-.45,2.51-1,3.76-1.58a.42.42,0,0,0,.22-.24c.11-.43.2-.87.27-1.31,0-.1-.08-.21-.12-.31-.32-.73-.63-1.46-1-2.18a1.82,1.82,0,0,0-.27-.31c-.12-.16-.31-.3-.35-.48a14.92,14.92,0,0,1-.16-1.52c0-.1,0-.25.08-.29.32-.19.23-.48.22-.76,0-.57-.05-1.15,0-1.72a2,2,0,0,1,.91-1.54c.58-.42,1.19-.8,1.82-1.21l0,.43.92-1.06.11.09.1.67c.17,0,.32-.07.4,0,.66.35,1.33.68,2,1.08a2.32,2.32,0,0,1,1,2.12c0,.47-.06.94-.06,1.41a1,1,0,0,0,.18.42c0,.08.17.14.17.2,0,.62-.06,1.24-.1,1.85a.12.12,0,0,1-.07.09c-.49.08-.38.53-.53.83-.3.63-.65,1.24-1,1.87a1.18,1.18,0,0,0-.18.59C65,25,65,25,66.09,25.57l.65.33c-.47.21-.89.4-1.3.6a7.9,7.9,0,0,0-2.73,2,3.85,3.85,0,0,0-.83,1.75c-.22,1.09-.46,2.18-.72,3.26A.42.42,0,0,1,60.87,33.73Zm.55,3.48c.32-1.59.63-3.18,1-4.77.14-.71.31-1.4.45-2.11a2.77,2.77,0,0,1,.93-1.56,12.31,12.31,0,0,1,3.13-1.86c.77-.36,1.52-.76,2.27-1.17a.57.57,0,0,0,.21-.33,2.74,2.74,0,0,0,0-.51l.84-.13c0-.47,0-.88-.44-1.22a1.81,1.81,0,0,1-.58-1.37c0-.26,0-.48-.39-.57-.17,0-.31-.36-.37-.58-.11-.4-.15-.82-.23-1.23a1,1,0,0,1,.22-.88.5.5,0,0,0,.1-.42,6.34,6.34,0,0,1-.19-3.75,2.59,2.59,0,0,1,.15-.49,1.15,1.15,0,0,1,1.22-.89.69.69,0,0,1,.53-.77,5.29,5.29,0,0,1,4.93.41,2.48,2.48,0,0,1,1.11,1.78,12.92,12.92,0,0,1,.07,3.82c.63.23.63.72.49,1.25a12,12,0,0,1-.37,1.2c-.13.34-.32.63-.72.65-.06.4-.11.78-.19,1.15,0,.2-.11.47-.26.55-.59.35-.36.87-.35,1.36a.88.88,0,0,0,.2,0c.43,0,.63.17.6.64a.6.6,0,0,0,.3.45c.69.33,1.4.64,2.11.93s1.53.55,2.25.91a2.45,2.45,0,0,1,1.37,1.8c.42,2,.94,4,1.39,6,.12.54.15,1.11.22,1.67ZM84,34.3c-.4-1.59-.9-3.1-1.15-4.66a4,4,0,0,0-2.57-3.11l-.32-.15,0,0a1.85,1.85,0,0,1,1-1.14c.45-.21.25-.59.26-.89,0-.1-.25-.25-.4-.31-.69-.24-1.39-.46-2.08-.68L79,22.25,79,22.2l-.61.73-.11-.09a1.16,1.16,0,0,1,.08-.22,8.55,8.55,0,0,0,1-3.52A21.53,21.53,0,0,1,79.83,16c.39-1.49,1.18-2.22,3-2.58a3.61,3.61,0,0,1,4.22,3c.19,1.34.37,2.67.64,4a13.79,13.79,0,0,0,.69,2c.05.14.12.27.18.41l-.1.08-.62-.78-.14.1.43,1.1-2,.65a.68.68,0,0,0-.5,1c0,.09.16.15.24.23.29.29.57.59.86.88a4.44,4.44,0,0,0,.73.61,7,7,0,0,0,1.16.57,16.34,16.34,0,0,0,1.82.59,1.91,1.91,0,0,1,1.44,1.69c0,.78.07,1.57.11,2.36a5.18,5.18,0,0,0,.08.54V34.3Z"/><path class="cls-1" d="M29.76,24.92h1.72A11.54,11.54,0,0,0,20.58,14v1.72a.64.64,0,1,1-1.27,0V14A11.54,11.54,0,0,0,8.42,24.92h1.72a.64.64,0,1,1,0,1.27H8.42A11.54,11.54,0,0,0,19.31,37.08V35.37a.64.64,0,1,1,1.27,0v1.72A11.54,11.54,0,0,0,31.47,26.19H29.76a.64.64,0,0,1,0-1.27Zm-3.6,7a.68.68,0,0,1-1,0l-6.66-5.61h0l-.08-.07s0,0,0-.05v0a.31.31,0,0,1,0-.1v-.08a.89.89,0,0,1,0-.16l.63-5a.68.68,0,0,1,1.36,0L21,24.92l5.18,6A.68.68,0,0,1,26.15,31.87Z"/><path class="cls-1" d="M48.78,0H0V51.11H46.75l-7.3-25.56ZM19.95,39.15A13.59,13.59,0,1,1,33.54,25.56,13.59,13.59,0,0,1,19.95,39.15Z"/></svg>